<svg width="12" height="14" viewBox="0 0 12 14" fill="none" xmlns="http://www.w3.org/2000/svg">
<g clip-path="url(#clip0_2211_589)">
<path fill-rule="evenodd" clip-rule="evenodd" d="M4.45791 0.799059C3.63676 1.23303 2.96495 1.60026 2.96509 1.61519C2.96546 1.65374 4.93588 2.66614 5.00582 2.66368C5.03763 2.66259 5.26841 2.55482 5.51864 2.4242L5.97368 2.18675L6.47064 2.44591L6.96757 2.70511L7.78139 2.33411C9.00766 1.77507 9.13502 1.71381 9.11506 1.69323C9.08857 1.66592 8.64873 1.4262 7.45542 0.788833C6.87871 0.480787 6.31897 0.178757 6.21151 0.117642C6.10407 0.0565262 6.00149 0.00736271 5.98357 0.00831437C5.96565 0.00926602 5.27908 0.365105 4.45791 0.799059ZM0.856351 2.69118L0.00154217 3.13913V5.10512C0.00154217 6.18643 0.0127667 7.0711 0.0265349 7.0711C0.0402555 7.0711 0.460824 6.88614 0.961108 6.66008L1.87072 6.24906V4.17678L2.31522 4.42246C2.65774 4.61161 3.00047 4.80038 3.3434 4.98876L3.92707 5.30937L4.18679 5.19022C4.34968 5.11538 4.51224 5.03981 4.67447 4.9635C4.79983 4.90428 5.10757 4.76366 5.35831 4.65096C5.60904 4.53821 5.84115 4.42483 5.87406 4.39899C5.91778 4.36467 5.38467 4.06579 3.90222 3.29346C2.78478 2.71129 1.83466 2.23682 1.79084 2.23909C1.74703 2.24137 1.32651 2.44478 0.856351 2.69118ZM9.26911 2.81697C8.68694 3.08361 8.2102 3.31243 8.20966 3.32548C8.20915 3.33851 8.52645 3.52992 8.91483 3.75077C9.30317 3.97167 9.62092 4.16421 9.62092 4.17871C9.62092 4.19318 9.27727 4.36211 8.85731 4.55418C8.43728 4.7462 7.37564 5.23261 6.49805 5.6351L3.55752 6.98358C2.81784 7.32282 2.15109 7.62859 2.07588 7.66316C0.565024 8.35704 0.14975 8.54958 0.0927212 8.58263C0.0353746 8.61591 0.0223854 8.80922 0.0121784 9.77948L0 10.9367L0.764409 11.3318L1.5288 11.727L2.58875 11.2417C3.17174 10.9748 3.6487 10.7424 3.6487 10.7253C3.6487 10.7082 3.54097 10.637 3.40936 10.567C3.27769 10.4969 3.00589 10.3419 2.80529 10.2224C2.60472 10.1028 2.40471 9.99316 2.3608 9.97862C2.3169 9.96411 2.28162 9.93874 2.28234 9.92219C2.28307 9.90569 2.74982 9.68076 3.3195 9.42232C4.42601 8.92041 5.27279 8.53357 7.09071 7.69951C7.90362 7.32664 8.71663 6.95398 9.52974 6.58156C10.2444 6.25432 11.0752 5.87213 11.3761 5.73225L11.9232 5.47793L11.9354 4.30754L11.9476 3.1372L11.1723 2.73347C10.7458 2.51144 10.3814 2.33032 10.3622 2.33098C10.3432 2.3316 9.85124 2.55027 9.26911 2.81697ZM11.7155 7.03929C11.6012 7.09591 11.3756 7.20191 11.214 7.27483C11.0524 7.34776 10.7458 7.4881 10.5327 7.58677L10.1452 7.76608L10.1364 8.79358C10.1315 9.35868 10.111 9.81854 10.0908 9.81556C10.0449 9.80864 9.31862 9.43075 8.58855 9.03386C8.06162 8.74745 8.02852 8.73606 7.9047 8.79827C7.83313 8.83426 7.40528 9.02893 6.95395 9.23095C6.5026 9.43295 6.11861 9.6114 6.10055 9.62757C6.08254 9.6437 6.99091 10.1432 8.11921 10.7376L10.1706 11.8183L11.0469 11.3584C11.5288 11.1055 11.9386 10.8748 11.9575 10.8458C12 10.7806 11.9964 6.9274 11.9538 6.93261C11.937 6.93466 11.8297 6.98268 11.7155 7.03929ZM6.86277 11.5619C6.71076 11.6282 6.5588 11.6946 6.40687 11.7611C5.9481 11.9625 6.03801 11.9692 5.4922 11.6935C5.12868 11.5099 4.97198 11.4533 4.90397 11.4808C4.85295 11.5014 4.41388 11.7018 3.92817 11.9261C3.4425 12.1504 3.02827 12.3339 3.00767 12.3339C2.80389 12.3339 3.14266 12.5393 4.4499 13.2083L5.98298 13.9928L6.62802 13.6697C6.9828 13.492 7.69837 13.1362 8.21823 12.879C8.73803 12.6217 9.15692 12.4045 9.14908 12.3964C9.14118 12.3882 8.70562 12.1613 8.18112 11.8921L7.22748 11.4028L6.86277 11.5619Z" fill="#AD00FF"/>
</g>
<defs>
<clipPath id="clip0_2211_589">
<rect width="12" height="14" fill="white"/>
</clipPath>
</defs>
</svg>
